<svg width="512" height="512" viewBox="0 0 512 512" fill="none" xmlns="http://www.w3.org/2000/svg">
<path d="M149.333 192C155.733 197.333 162.133 202.667 176 202.667C202.667 202.667 202.667 181.333 229.333 181.333C257.067 181.333 254.933 202.667 282.667 202.667C309.333 202.667 309.333 181.333 336 181.333C349.867 181.333 356.267 186.667 362.667 192" stroke="#06B6D4" stroke-width="21.3333" stroke-linecap="round" stroke-linejoin="round"/>
<path d="M149.333 256C155.733 261.333 162.133 266.667 176 266.667C202.667 266.667 202.667 245.333 229.333 245.333C257.067 245.333 254.933 266.667 282.667 266.667C309.333 266.667 309.333 245.333 336 245.333C349.867 245.333 356.267 250.667 362.667 256" stroke="#06B6D4" stroke-width="21.3333" stroke-linecap="round" stroke-linejoin="round"/>
<path d="M149.333 320C155.733 325.333 162.133 330.667 176 330.667C202.667 330.667 202.667 309.333 229.333 309.333C257.067 309.333 254.933 330.667 282.667 330.667C309.333 330.667 309.333 309.333 336 309.333C349.867 309.333 356.267 314.667 362.667 320" stroke="#06B6D4" stroke-width="21.3333" stroke-linecap="round" stroke-linejoin="round"/>
</svg>
